<svg width="24" height="24" viewBox="0 0 24 24" fill="none" xmlns="http://www.w3.org/2000/svg">
<g id="htmlTag=img, asset=CheckboxChecked, assetKey=Content, action=Default, style=Brand500">
<path id="Content" fill-rule="evenodd" clip-rule="evenodd" d="M16.295 9.60598L11.727 15.606C11.539 15.853 11.248 15.999 10.938 16.001H10.931C10.624 16.001 10.334 15.859 10.144 15.617L7.712 12.51C7.372 12.076 7.448 11.447 7.883 11.107C8.318 10.766 8.946 10.842 9.287 11.278L10.92 13.364L14.704 8.39498C15.038 7.95598 15.666 7.86998 16.106 8.20498C16.545 8.53998 16.63 9.16698 16.295 9.60598ZM18 3.00098H6C4.345 3.00098 3 4.34598 3 6.00098V18.001C3 19.655 4.345 21.001 6 21.001H18C19.654 21.001 21 19.655 21 18.001V6.00098C21 4.34598 19.654 3.00098 18 3.00098Z" fill="#1A237E"/>
</g>
</svg>
