<svg width="24" height="24" viewBox="0 0 16 16" fill="none" xmlns="http://www.w3.org/2000/svg">
<path fill-rule="evenodd" clip-rule="evenodd" d="M12.0187 6.67867L9.32365 3.98367L11.2717 2.03467L13.9657 4.72867L12.0187 6.67867ZM5.07965 13.6247L2.10265 13.8957L2.36665 10.9397L7.98365 5.32267L10.6797 8.01867L5.07965 13.6247ZM15.4037 3.33767L12.6647 0.598675C11.9237 -0.140325 10.6507 -0.175325 9.94865 0.529675L0.952652 9.52567C0.626652 9.85067 0.424652 10.2827 0.382652 10.7397L0.00365188 14.9097C-0.0223481 15.2047 0.0826519 15.4967 0.292652 15.7067C0.481652 15.8957 0.736652 15.9997 0.999652 15.9997C1.03065 15.9997 1.06065 15.9987 1.09065 15.9957L5.26065 15.6167C5.71865 15.5747 6.14965 15.3737 6.47465 15.0487L15.4717 6.05167C16.1997 5.32167 16.1687 4.10367 15.4037 3.33767Z" fill="#1A237E"/>
</svg>
