<svg width="200" height="200" viewBox="0 0 200 200" fill="none" xmlns="http://www.w3.org/2000/svg">
<path fill-rule="evenodd" clip-rule="evenodd" d="M144.696 148.257H35.4393C31.1393 148.257 27.6353 144.761 27.6353 140.453V64.3634L85.3852 107.676C86.7744 108.722 88.421 109.237 90.0677 109.237C91.7143 109.237 93.361 108.722 94.7501 107.676L152.5 64.3634V140.453C152.5 144.761 148.996 148.257 144.696 148.257ZM139.491 54.6079L90.0676 91.6771L40.6446 54.6079H139.491ZM144.696 39H35.4393C22.5314 39 12.0271 49.5043 12.0271 62.4122V140.453C12.0271 153.361 22.5314 163.865 35.4393 163.865H144.696C157.604 163.865 168.108 153.361 168.108 140.453V62.4122C168.108 49.5043 157.604 39 144.696 39Z" fill="#484F98"/>
<path fill-rule="evenodd" clip-rule="evenodd" d="M143.135 97.2705C116.699 97.2705 95.2703 118.7 95.2703 145.135C95.2703 171.566 116.699 193 143.135 193C169.571 193 191 171.566 191 145.135C191 118.7 169.571 97.2705 143.135 97.2705Z" fill="#00D68F"/>
<path fill-rule="evenodd" clip-rule="evenodd" d="M163.693 133.671L141.829 162.39C140.929 163.572 139.536 164.271 138.052 164.281H138.018C136.549 164.281 135.161 163.601 134.252 162.443L122.611 147.571C120.983 145.494 121.347 142.483 123.429 140.856C125.507 139.224 128.522 139.587 130.149 141.674L137.966 151.659L156.078 127.875C157.677 125.773 160.678 125.362 162.789 126.965C164.89 128.569 165.297 131.57 163.693 133.671Z" fill="white"/>
</svg>
