<svg width="24" height="24" viewBox="0 0 24 24" fill="none" xmlns="http://www.w3.org/2000/svg">
<g id="htmlTag=img, asset=Hide, assetKey=Content, action=Default, style=Basic400">
<g id="Content">
<path fill-rule="evenodd" clip-rule="evenodd" d="M4.70705 3.29325C4.31605 2.90225 3.68405 2.90225 3.29305 3.29325C2.90205 3.68425 2.90205 4.31625 3.29305 4.70725L8.92305 10.3373C8.64705 10.8463 8.50005 11.4113 8.50005 12.0002C8.50005 13.9303 10.0701 15.5002 12 15.5002C12.5891 15.5002 13.154 15.3532 13.663 15.0772L19.293 20.7073C19.488 20.9023 19.744 21.0002 20 21.0002C20.2561 21.0002 20.5121 20.9023 20.7071 20.7073C21.0981 20.3162 21.0981 19.6842 20.7071 19.2932L4.70705 3.29325ZM12 13.5003C11.173 13.5003 10.5 12.8273 10.5 12.0003C10.5 11.9872 10.5031 11.9744 10.5061 11.9616C10.5088 11.9499 10.5116 11.9382 10.512 11.9263L12.074 13.4883C12.0621 13.4887 12.0504 13.4915 12.0388 13.4942C12.0259 13.4972 12.0131 13.5003 12 13.5003Z" fill="#D2D3DF"/>
<path d="M12.2198 16.9979C7.91475 17.0978 5.10475 13.4149 4.17275 11.9958C4.62975 11.2818 5.39575 10.2358 6.45575 9.28485L5.04475 7.87285C3.52275 9.26185 2.54675 10.7799 2.13275 11.5028C1.95575 11.8109 1.95575 12.1898 2.13275 12.4979C2.76175 13.5948 6.16175 18.9998 12.0247 18.9998C12.1067 18.9998 12.1888 18.9988 12.2708 18.9968C13.4548 18.9668 14.5268 18.7109 15.4978 18.3269L13.9178 16.7468C13.3828 16.8888 12.8198 16.9829 12.2198 16.9979Z" fill="#D2D3DF"/>
<path d="M11.7297 5.00365C17.7048 4.81665 21.2297 10.3907 21.8678 11.5027C22.0438 11.8106 22.0438 12.1896 21.8678 12.4977C21.4527 13.2206 20.4767 14.7387 18.9548 16.1277L17.5437 14.7157C18.6038 13.7647 19.3708 12.7186 19.8267 12.0047C18.8948 10.5856 16.0717 6.89465 11.7808 7.00265C11.1807 7.01765 10.6178 7.11165 10.0817 7.25365L8.50175 5.67365C9.47375 5.28965 10.5448 5.03365 11.7297 5.00365Z" fill="#D2D3DF"/>
</g>
</g>
</svg>
