<svg width="200" height="200" viewBox="0 0 200 200" fill="none" xmlns="http://www.w3.org/2000/svg">
<path fill-rule="evenodd" clip-rule="evenodd" d="M175.192 151.627L120.68 61.2547C116.424 54.2063 108.75 50 100.153 50C91.5557 50 83.882 54.2063 79.626 61.2547L25.1144 151.627C21.0786 158.327 20.9578 166.384 24.7947 173.177C28.9086 180.474 36.902 185 45.6415 185H154.665C163.404 185 171.398 180.474 175.512 173.177C179.348 166.384 179.228 158.327 175.192 151.627Z" fill="#FFE600"/>
<path d="M175.192 151.627L178.618 149.563L178.617 149.561L175.192 151.627ZM120.68 61.2547L124.105 59.1887L124.104 59.1871L120.68 61.2547ZM79.626 61.2547L76.2018 59.1871L76.2009 59.1887L79.626 61.2547ZM25.1144 151.627L21.6893 149.561L21.688 149.563L25.1144 151.627ZM24.7947 173.177L28.2791 171.212L28.2775 171.21L24.7947 173.177ZM175.512 173.177L172.029 171.21L172.027 171.212L175.512 173.177ZM178.617 149.561L124.105 59.1887L117.255 63.3208L171.767 153.693L178.617 149.561ZM124.104 59.1871C119.086 50.8756 110.075 46 100.153 46V54C107.425 54 113.763 57.537 117.256 63.3224L124.104 59.1871ZM100.153 46C90.2307 46 81.2205 50.8756 76.2018 59.1871L83.0502 63.3224C86.5435 57.537 92.8807 54 100.153 54V46ZM76.2009 59.1887L21.6893 149.561L28.5396 153.693L83.0511 63.3208L76.2009 59.1887ZM21.688 149.563C16.911 157.494 16.7631 167.091 21.3119 175.144L28.2775 171.21C25.1526 165.677 25.2463 159.16 28.5409 153.69L21.688 149.563ZM21.3103 175.141C26.1722 183.765 35.5395 189 45.6415 189V181C38.2646 181 31.645 177.183 28.2791 171.212L21.3103 175.141ZM45.6415 189H154.665V181H45.6415V189ZM154.665 189C164.767 189 174.134 183.765 178.996 175.141L172.027 171.212C168.661 177.183 162.042 181 154.665 181V189ZM178.994 175.144C183.543 167.091 183.395 157.494 178.618 149.563L171.765 153.69C175.06 159.16 175.154 165.677 172.029 171.21L178.994 175.144Z" fill="#F1DB1A"/>
<path fill-rule="evenodd" clip-rule="evenodd" d="M107.259 128.158C107.259 132.08 104.076 135.263 100.154 135.263C96.232 135.263 93.0488 132.08 93.0488 128.158V99.7371C93.0488 95.815 96.232 92.6318 100.154 92.6318C104.076 92.6318 107.259 95.815 107.259 99.7371V128.158Z" fill="#090D1D"/>
<path fill-rule="evenodd" clip-rule="evenodd" d="M100.154 156.579C96.232 156.579 93.0488 153.396 93.0488 149.473C93.0488 145.551 96.232 142.368 100.154 142.368C104.076 142.368 107.259 145.551 107.259 149.473C107.259 153.396 104.076 156.579 100.154 156.579Z" fill="#090D1D"/>
</svg>
