<svg width="154" height="20" viewBox="0 0 154 20" fill="none" xmlns="http://www.w3.org/2000/svg">
<g clip-path="url(#clip0)">
<path d="M59.1475 18.2943V0.402313H63.2761V15.1614H71.1737V18.2943H59.1475Z" fill="#001E61"/>
<path d="M84.9792 18.295H73.7656V0.403046H84.9792V3.51118H77.8939V7.43963H84.4864V10.5482H77.8939V15.1621H84.9791L84.9792 18.295Z" fill="#001E61"/>
<path d="M100.961 18.2945L99.5494 14.0357H92.4505L91.039 18.2945H86.5908L93.4632 0.328918H98.5105L105.409 18.2945H100.961ZM98.5635 10.8536C97.2586 6.99473 96.5239 4.81226 96.3594 4.30615C96.1953 3.80058 96.0778 3.40089 96.0068 3.10707C95.7135 4.15138 94.8744 6.73355 93.4897 10.8536L98.5635 10.8536Z" fill="#001E61"/>
<path d="M119.354 13.3262C119.388 14.0551 119.233 14.781 118.904 15.4446C118.574 16.1083 118.078 16.6908 117.456 17.1446C116.191 18.0746 114.431 18.5396 112.176 18.5397C110.272 18.5745 108.385 18.206 106.662 17.4626V13.9381C107.74 14.397 108.855 14.7776 109.998 15.0764C110.812 15.2841 111.651 15.3951 112.495 15.4068C113.227 15.4491 113.955 15.2825 114.579 14.9296C114.82 14.7679 115.013 14.5531 115.14 14.305C115.267 14.0568 115.323 13.7834 115.305 13.5098C115.31 13.1743 115.198 12.8461 114.986 12.5735C114.726 12.2609 114.409 11.9937 114.047 11.7843C113.232 11.3352 112.389 10.9307 111.523 10.5728C110.564 10.1888 109.664 9.6909 108.846 9.09175C108.26 8.6296 107.777 8.06876 107.421 7.43949C107.052 6.75577 106.869 5.99991 106.888 5.2369C106.851 4.5332 106.99 3.8311 107.294 3.18417C107.597 2.53725 108.058 1.96258 108.64 1.50402C109.807 0.59858 111.42 0.145862 113.48 0.145862C114.457 0.141749 115.431 0.252772 116.377 0.476216C117.363 0.718035 118.327 1.02906 119.261 1.40654L117.929 4.35589C117.092 4.02752 116.231 3.75353 115.352 3.53594C114.697 3.38351 114.023 3.30533 113.347 3.30315C112.701 3.26342 112.062 3.44194 111.55 3.80511C111.345 3.96643 111.183 4.16784 111.075 4.39448C110.966 4.62112 110.915 4.86721 110.924 5.1146C110.916 5.42248 111.003 5.72606 111.177 5.98972C111.389 6.27831 111.663 6.52399 111.982 6.71166C112.827 7.177 113.701 7.59583 114.599 7.96594C116.419 8.76596 117.667 9.56762 118.342 10.3709C119.033 11.2225 119.39 12.2643 119.354 13.3262Z" fill="#001E61"/>
<path d="M133.306 18.2943H122.092V0.402313H133.306V3.51045H126.221V7.4389H132.814V10.5475H126.221V15.1614H133.306V18.2943Z" fill="#001E61"/>
<path d="M9.13927 3.30289C8.4394 3.27383 7.74271 3.40583 7.11243 3.68692C6.48216 3.968 5.93824 4.38926 5.53006 4.91248C4.6776 5.98554 4.2514 7.48061 4.25146 9.39769C4.25146 13.3873 5.88072 15.3822 9.13922 15.3824C10.8404 15.3219 12.5189 15.0034 14.107 14.4399V17.6217C12.4065 18.2516 10.5864 18.5637 8.75311 18.5396C5.92087 18.5396 3.75451 17.7503 2.25403 16.1715C0.753537 14.5927 0.00317398 12.3266 0.00293626 9.37312C-0.0375175 7.6874 0.340499 6.01537 1.10829 4.48395C1.78937 3.14116 2.89666 2.01917 4.28462 1.26544C5.76285 0.495599 7.44062 0.108598 9.13927 0.145651C11.1186 0.164823 13.0674 0.595809 14.8395 1.40625L13.5076 4.48997C12.7918 4.17672 12.0583 3.89902 11.3102 3.65807C10.6136 3.42784 9.87955 3.30775 9.13927 3.30289Z" fill="#F7323F"/>
<path d="M30.1685 18.2944L28.7567 14.0356H21.6581L20.2465 18.2944H15.7983L22.6703 0.328827H27.718L34.6166 18.2944H30.1685ZM27.7711 10.8535C26.4659 6.99461 25.7312 4.81214 25.5669 4.30606C25.4026 3.80049 25.285 3.4008 25.2141 3.10698C24.921 4.15128 24.0819 6.73346 22.697 10.8535L27.7711 10.8535Z" fill="#F7323F"/>
<path d="M54.096 18.2942H48.8485L40.3781 4.75866H40.2584C40.4269 7.14963 40.5111 8.85495 40.5113 9.8746V18.2942H36.8223V0.402252H42.0297L50.4866 13.8026H50.58C50.4468 11.4777 50.3802 9.83367 50.3802 8.87068V0.402252H54.0961L54.096 18.2942Z" fill="#F7323F"/>
<path d="M145.272 0L143.748 2.72155C143.575 3.01766 143.265 2.99063 142.955 2.82517L141.851 2.27758L142.674 6.46005C142.847 7.22265 142.291 7.22265 142.018 6.89336L140.091 4.82916L139.779 5.87601C139.755 5.96039 139.697 6.03319 139.617 6.0795C139.536 6.1258 139.44 6.14209 139.347 6.12502L136.911 5.63478L137.551 7.86157C137.688 8.35633 137.794 8.56275 137.412 8.69299L136.544 9.08248L140.737 12.3438C140.822 12.4091 140.884 12.495 140.918 12.5916C140.952 12.6882 140.955 12.7915 140.928 12.8898L140.561 14.0431C142.003 13.883 143.299 13.7417 144.742 13.5824C144.87 13.5811 145.083 13.6856 145.082 13.8273L144.89 18.0511H145.593L145.482 13.8351C145.481 13.6946 145.674 13.5811 145.803 13.5824C147.246 13.7417 148.54 13.883 149.984 14.0431L149.617 12.8898C149.59 12.7915 149.593 12.6881 149.627 12.5915C149.66 12.4949 149.723 12.4091 149.808 12.3438L154 9.08248L153.132 8.69299C152.75 8.56275 152.857 8.35633 152.994 7.86157L153.633 5.63478L151.198 6.12502C151.105 6.14215 151.009 6.12588 150.928 6.07957C150.848 6.03326 150.79 5.96042 150.766 5.87601L150.452 4.82916L148.527 6.89336C148.253 7.22265 147.697 7.22265 147.871 6.46005L148.693 2.27758L147.59 2.82517C147.281 2.99063 146.97 3.01766 146.797 2.72155L145.272 0Z" fill="#F7323F"/>
</g>
<defs>
<clipPath id="clip0">
<rect width="154" height="20" fill="white"/>
</clipPath>
</defs>
</svg>
