<svg width="200" height="200" viewBox="0 0 200 200" fill="none" xmlns="http://www.w3.org/2000/svg">
<path d="M144.111 17H38.5053C34.9247 17.004 31.4919 18.4214 28.96 20.9413C26.4282 23.4612 25.004 26.8777 25 30.4414V153.858C25.004 157.421 26.4282 160.838 28.96 163.358C31.4919 165.878 34.9247 167.295 38.5053 167.299H144.111C147.692 167.295 151.125 165.878 153.657 163.358C156.189 160.838 157.613 157.421 157.617 153.858V30.4414C157.613 26.8777 156.189 23.4612 153.657 20.9413C151.125 18.4214 147.692 17.004 144.111 17Z" fill="#7B80B4"/>
<path d="M142.849 21.8796H40.3214C37.8459 21.8824 35.4726 22.867 33.7222 24.6175C31.9718 26.3679 30.9872 28.7412 30.9844 31.2167V151.605C30.9872 154.08 31.9718 156.453 33.7222 158.204C35.4726 159.954 37.8459 160.939 40.3214 160.942H142.849C145.324 160.939 147.697 159.954 149.448 158.204C151.198 156.453 152.183 154.08 152.185 151.605V31.2167C152.183 28.7412 151.198 26.3679 149.448 24.6175C147.697 22.8671 145.324 21.8824 142.849 21.8796Z" fill="white"/>
<path d="M98.204 104.058H46.3568C46.0698 104.058 45.7857 104.002 45.5205 103.892C45.2553 103.782 45.0143 103.622 44.8113 103.419C44.6083 103.216 44.4472 102.975 44.3373 102.71C44.2275 102.445 44.1709 102.161 44.1709 101.874C44.1709 101.587 44.2275 101.303 44.3373 101.038C44.4472 100.773 44.6083 100.532 44.8113 100.329C45.0143 100.127 45.2553 99.9658 45.5205 99.8562C45.7857 99.7466 46.0698 99.6904 46.3568 99.6907H98.204C98.7826 99.6913 99.3374 99.9216 99.7463 100.331C100.155 100.74 100.385 101.295 100.385 101.874C100.385 102.453 100.155 103.008 99.7463 103.417C99.3374 103.827 98.7826 104.057 98.204 104.058Z" fill="#EDEDF0"/>
<path d="M135.387 104.058H83.5394C83.2524 104.058 82.9683 104.002 82.7031 103.892C82.4379 103.782 82.1969 103.622 81.9939 103.419C81.7909 103.216 81.6298 102.975 81.52 102.71C81.4101 102.445 81.3535 102.161 81.3535 101.874C81.3535 101.587 81.4101 101.303 81.52 101.038C81.6298 100.773 81.7909 100.532 81.9939 100.329C82.1969 100.127 82.4379 99.9658 82.7031 99.8562C82.9683 99.7466 83.2524 99.6904 83.5394 99.6907H135.387C135.965 99.6913 136.52 99.9216 136.929 100.331C137.338 100.74 137.568 101.295 137.568 101.874C137.568 102.453 137.338 103.008 136.929 103.417C136.52 103.827 135.965 104.057 135.387 104.058Z" fill="#EDEDF0"/>
<path d="M107.211 111.427H46.3568C46.0698 111.427 45.7857 111.371 45.5205 111.261C45.2553 111.152 45.0143 110.991 44.8113 110.788C44.6083 110.585 44.4472 110.344 44.3373 110.079C44.2275 109.814 44.1709 109.53 44.1709 109.243C44.1709 108.956 44.2275 108.672 44.3373 108.407C44.4472 108.142 44.6083 107.901 44.8113 107.698C45.0143 107.496 45.2553 107.335 45.5205 107.225C45.7857 107.116 46.0698 107.059 46.3568 107.06H107.211C107.79 107.06 108.345 107.29 108.755 107.699C109.164 108.109 109.394 108.664 109.394 109.243C109.394 109.822 109.164 110.378 108.755 110.787C108.345 111.197 107.79 111.427 107.211 111.427Z" fill="#EDEDF0"/>
<path d="M98.204 123.802H46.3568C46.0698 123.803 45.7857 123.746 45.5205 123.637C45.2553 123.527 45.0143 123.367 44.8113 123.164C44.6083 122.961 44.4472 122.72 44.3373 122.455C44.2275 122.19 44.1709 121.906 44.1709 121.619C44.1709 121.332 44.2275 121.048 44.3373 120.783C44.4472 120.518 44.6083 120.277 44.8113 120.074C45.0143 119.871 45.2553 119.711 45.5205 119.601C45.7857 119.491 46.0698 119.435 46.3568 119.436H98.204C98.783 119.436 99.3384 119.666 99.7479 120.075C100.157 120.485 100.387 121.04 100.387 121.619C100.387 122.198 100.157 122.753 99.7479 123.163C99.3384 123.572 98.783 123.802 98.204 123.802Z" fill="#EDEDF0"/>
<path d="M135.387 123.802H83.5394C83.2524 123.803 82.9683 123.746 82.7031 123.637C82.4379 123.527 82.1969 123.367 81.9939 123.164C81.7909 122.961 81.6298 122.72 81.52 122.455C81.4101 122.19 81.3535 121.906 81.3535 121.619C81.3535 121.332 81.4101 121.048 81.52 120.783C81.6298 120.518 81.7909 120.277 81.9939 120.074C82.1969 119.871 82.4379 119.711 82.7031 119.601C82.9683 119.491 83.2524 119.435 83.5394 119.436H135.387C135.966 119.436 136.521 119.666 136.931 120.075C137.34 120.485 137.57 121.04 137.57 121.619C137.57 122.198 137.34 122.753 136.931 123.163C136.521 123.572 135.966 123.802 135.387 123.802Z" fill="#EDEDF0"/>
<path d="M107.211 131.172H46.3568C46.0698 131.172 45.7857 131.116 45.5205 131.006C45.2553 130.896 45.0143 130.736 44.8113 130.533C44.6083 130.33 44.4472 130.089 44.3373 129.824C44.2275 129.559 44.1709 129.275 44.1709 128.988C44.1709 128.701 44.2275 128.417 44.3373 128.152C44.4472 127.887 44.6083 127.646 44.8113 127.443C45.0143 127.241 45.2553 127.08 45.5205 126.97C45.7857 126.861 46.0698 126.804 46.3568 126.805H107.211C107.498 126.804 107.782 126.861 108.047 126.97C108.312 127.08 108.553 127.241 108.756 127.443C108.959 127.646 109.12 127.887 109.23 128.152C109.34 128.417 109.396 128.701 109.396 128.988C109.396 129.275 109.34 129.559 109.23 129.824C109.12 130.089 108.959 130.33 108.756 130.533C108.553 130.736 108.312 130.896 108.047 131.006C107.782 131.116 107.498 131.172 107.211 131.172Z" fill="#EDEDF0"/>
<path d="M137.679 39.1429L137.301 39.6886C136.934 39.434 136.399 39.2702 135.81 39.2697H46.8152C46.2267 39.2702 45.6918 39.434 45.3243 39.6886C44.9589 39.9418 44.8354 40.2232 44.8349 40.4383V88.5627C44.8354 88.7778 44.9589 89.0592 45.3243 89.3124C45.6917 89.567 46.2265 89.7308 46.8149 89.7313C46.8151 89.7313 46.8152 89.7313 46.8154 89.7313M137.679 39.1429L46.8149 90.3953L46.8154 89.7313M137.679 39.1429L137.301 39.6886C137.667 39.942 137.79 40.2236 137.791 40.4388V88.5623C137.79 88.7774 137.667 89.059 137.301 89.3124C136.934 89.567 136.399 89.7308 135.811 89.7313M137.679 39.1429L135.811 89.7313M46.8154 89.7313H135.81M46.8154 89.7313H135.81M135.81 89.7313L135.811 89.7313M135.81 89.7313L135.811 89.7313" stroke="#E4E5F0" stroke-width="1.32794"/>
<path d="M88.166 62.5084H49.3087C49.0026 62.5082 48.7092 62.4339 48.4928 62.3018C48.2764 62.1697 48.1546 61.9906 48.1543 61.8038V43.294C48.1546 43.1072 48.2764 42.9281 48.4928 42.796C48.7092 42.6639 49.0026 42.5896 49.3087 42.5894H88.166C88.472 42.5896 88.7655 42.6639 88.9819 42.796C89.1983 42.9281 89.32 43.1072 89.3204 43.294V61.8038C89.32 61.9906 89.1983 62.1697 88.9819 62.3018C88.7655 62.4339 88.472 62.5082 88.166 62.5084Z" fill="#7B80B4"/>
<path d="M133.316 62.5084H94.4591C94.153 62.5082 93.8596 62.4339 93.6432 62.3018C93.4268 62.1697 93.305 61.9906 93.3047 61.8038V43.294C93.305 43.1072 93.4268 42.9281 93.6432 42.796C93.8596 42.6639 94.153 42.5896 94.4591 42.5894H133.316C133.622 42.5896 133.916 42.6639 134.132 42.796C134.349 42.9281 134.47 43.1072 134.471 43.294V61.8038C134.47 61.9906 134.349 62.1697 134.132 62.3018C133.916 62.4339 133.622 62.5082 133.316 62.5084Z" fill="#7B80B4"/>
<path d="M88.166 86.4115H49.3087C49.0026 86.4113 48.7092 86.337 48.4928 86.2049C48.2764 86.0728 48.1546 85.8937 48.1543 85.7069V67.197C48.1546 67.0102 48.2764 66.8311 48.4928 66.699C48.7092 66.5669 49.0026 66.4926 49.3087 66.4924H88.166C88.472 66.4926 88.7655 66.5669 88.9819 66.699C89.1983 66.8311 89.32 67.0102 89.3204 67.197V85.7069C89.32 85.8937 89.1983 86.0728 88.9819 86.2049C88.7655 86.337 88.472 86.4113 88.166 86.4115Z" fill="#7B80B4"/>
<path d="M133.316 86.4115H94.4591C94.153 86.4113 93.8596 86.337 93.6432 86.2049C93.4268 86.0728 93.305 85.8937 93.3047 85.7069V67.197C93.305 67.0102 93.4268 66.8311 93.6432 66.699C93.8596 66.5669 94.153 66.4926 94.4591 66.4924H133.316C133.622 66.4926 133.916 66.5669 134.132 66.699C134.349 66.8311 134.47 67.0102 134.471 67.197V85.7069C134.47 85.8937 134.349 86.0728 134.132 86.2049C133.916 86.337 133.622 86.4113 133.316 86.4115Z" fill="#7B80B4"/>
<path fill-rule="evenodd" clip-rule="evenodd" d="M141.995 117.568C123.766 117.568 108.99 132.344 108.99 150.572C108.99 168.798 123.766 183.577 141.995 183.577C160.223 183.577 175 168.798 175 150.572C175 132.344 160.223 117.568 141.995 117.568Z" fill="#00D68F"/>
<path fill-rule="evenodd" clip-rule="evenodd" d="M156.171 142.667L141.094 162.47C140.474 163.285 139.513 163.767 138.49 163.774H138.467C137.454 163.774 136.497 163.305 135.87 162.506L127.843 152.252C126.721 150.819 126.972 148.743 128.407 147.621C129.84 146.496 131.919 146.747 133.041 148.186L138.431 155.07L150.92 138.67C152.022 137.222 154.092 136.938 155.547 138.043C156.996 139.149 157.276 141.218 156.171 142.667Z" fill="white"/>
</svg>
