<svg width="24" height="24" viewBox="0 0 24 24" fill="none" xmlns="http://www.w3.org/2000/svg">
<g id="htmlTag=img, asset=RadioButtonOn, assetKey=Content, action=Default, style=Basic800">
<path id="Content" fill-rule="evenodd" clip-rule="evenodd" d="M12 6C8.6916 6 6 8.6916 6 12C6 15.3084 8.6916 18 12 18C15.3084 18 18 15.3084 18 12C18 8.6916 15.3084 6 12 6ZM12 20C7.589 20 4 16.411 4 12C4 7.589 7.589 4 12 4C16.411 4 20 7.589 20 12C20 16.411 16.411 20 12 20ZM12 2C6.486 2 2 6.486 2 12C2 17.514 6.486 22 12 22C17.514 22 22 17.514 22 12C22 6.486 17.514 2 12 2Z" fill="#2B2D45"/>
</g>
</svg>
