<svg width="24" height="24" viewBox="0 0 24 24" fill="none" xmlns="http://www.w3.org/2000/svg">
<g id="htmlTag=img, asset=Share, assetKey=Content, action=Default, style=Basic800">
<g id="Content">
<path d="M11.1724 6.82558L9.46421 8.53382C9.38743 8.61101 9.29618 8.6723 9.19569 8.71417C9.09519 8.75603 8.98742 8.77766 8.87855 8.77781C8.76968 8.77796 8.66185 8.75662 8.56124 8.71503C8.46063 8.67344 8.36922 8.6124 8.29223 8.53542C8.21525 8.45843 8.15421 8.36702 8.11262 8.26641C8.07103 8.1658 8.04969 8.05797 8.04984 7.9491C8.04999 7.84023 8.07161 7.73246 8.11348 7.63196C8.15535 7.53147 8.21664 7.44022 8.29383 7.36344L11.4148 4.24241C11.4917 4.16556 11.5829 4.10459 11.6833 4.063C11.7837 4.02141 11.8913 4 12 4C12.1087 4 12.2163 4.02141 12.3167 4.063C12.4172 4.10459 12.5084 4.16556 12.5852 4.24241L15.7062 7.36344C15.7834 7.44022 15.8447 7.53147 15.8866 7.63196C15.9285 7.73246 15.9501 7.84023 15.9502 7.9491C15.9504 8.05797 15.929 8.1658 15.8874 8.26641C15.8459 8.36702 15.7848 8.45843 15.7078 8.53542C15.6309 8.6124 15.5394 8.67344 15.4388 8.71503C15.3382 8.75662 15.2304 8.77796 15.1215 8.77781C15.0126 8.77766 14.9049 8.75603 14.8044 8.71417C14.7039 8.6723 14.6126 8.61101 14.5359 8.53382L12.8276 6.82558V15.8621C12.8276 16.0816 12.7404 16.2921 12.5852 16.4473C12.43 16.6025 12.2195 16.6897 12 16.6897C11.7805 16.6897 11.57 16.6025 11.4148 16.4473C11.2596 16.2921 11.1724 16.0816 11.1724 15.8621V6.82558Z" fill="#2B2D45"/>
<path d="M18.5872 11.4148C18.7424 11.2596 18.9529 11.1724 19.1724 11.1724C19.3919 11.1724 19.6024 11.2596 19.7576 11.4148C19.9128 11.57 20 11.7805 20 12V18.6207C20 18.9865 19.8547 19.3373 19.596 19.596C19.3373 19.8547 18.9865 20 18.6207 20H5.37931C5.01349 20 4.66266 19.8547 4.40399 19.596C4.14532 19.3373 4 18.9865 4 18.6207V12C4 11.7805 4.08719 11.57 4.24239 11.4148C4.3976 11.2596 4.6081 11.1724 4.82759 11.1724C5.04708 11.1724 5.25758 11.2596 5.41278 11.4148C5.56798 11.57 5.65517 11.7805 5.65517 12V18.3448H18.3448V12C18.3448 11.7805 18.432 11.57 18.5872 11.4148Z" fill="#2B2D45"/>
</g>
</g>
</svg>
