<svg width="24" height="24" viewBox="0 0 24 24" fill="none" xmlns="http://www.w3.org/2000/svg">
<g id="htmlTag=img, asset=Share2, assetKey=Content, action=Default, style=Basic800">
<g id="Content">
<path d="M18.4886 6.66662C18.4886 7.86327 17.4966 8.83336 16.2728 8.83336C15.0489 8.83336 14.0569 7.86327 14.0569 6.66662C14.0569 5.47009 15.0489 4.5 16.2728 4.5C17.4966 4.5 18.4886 5.47009 18.4886 6.66662Z" fill="#2B2D45"/>
<path d="M16.2728 9.33336C14.7686 9.33336 13.5455 8.13732 13.5455 6.66662C13.5455 5.19604 14.7686 4 16.2728 4C17.7769 4 19 5.19604 19 6.66662C19 8.13732 17.7769 9.33336 16.2728 9.33336ZM16.2728 5C15.3325 5 14.5682 5.74804 14.5682 6.66662C14.5682 7.58532 15.3325 8.33336 16.2728 8.33336C17.213 8.33336 17.9773 7.58532 17.9773 6.66662C17.9773 5.74804 17.213 5 16.2728 5Z" fill="#2B2D45"/>
<path d="M18.4886 17.3334C18.4886 18.5299 17.4966 19.5 16.2728 19.5C15.0489 19.5 14.0569 18.5299 14.0569 17.3334C14.0569 16.1367 15.0489 15.1666 16.2728 15.1666C17.4966 15.1666 18.4886 16.1367 18.4886 17.3334Z" fill="#2B2D45"/>
<path d="M16.2728 20C14.7686 20 13.5455 18.804 13.5455 17.3334C13.5455 15.8627 14.7686 14.6666 16.2728 14.6666C17.7769 14.6666 19 15.8627 19 17.3334C19 18.804 17.7769 20 16.2728 20ZM16.2728 15.6666C15.3325 15.6666 14.5682 16.4147 14.5682 17.3334C14.5682 18.252 15.3325 19 16.2728 19C17.213 19 17.9773 18.252 17.9773 17.3334C17.9773 16.4147 17.213 15.6666 16.2728 15.6666Z" fill="#2B2D45"/>
<path d="M8.94325 11.9999C8.94325 13.1966 7.9511 14.1666 6.72725 14.1666C5.50351 14.1666 4.51137 13.1966 4.51137 11.9999C4.51137 10.8033 5.50351 9.83332 6.72725 9.83332C7.9511 9.83332 8.94325 10.8033 8.94325 11.9999Z" fill="#2B2D45"/>
<path d="M6.72725 14.6666C5.22323 14.6666 4 13.4706 4 11.9999C4 10.5292 5.22323 9.33332 6.72725 9.33332C8.23138 9.33332 9.45462 10.5292 9.45462 11.9999C9.45462 13.4706 8.23138 14.6666 6.72725 14.6666ZM6.72725 10.3333C5.78704 10.3333 5.02273 11.0812 5.02273 11.9999C5.02273 12.9186 5.78704 13.6666 6.72725 13.6666C7.66758 13.6666 8.43188 12.9186 8.43188 11.9999C8.43188 11.0812 7.66758 10.3333 6.72725 10.3333Z" fill="#2B2D45"/>
<path d="M8.33721 11.68C8.09988 11.68 7.86942 11.5593 7.74395 11.3434C7.5578 11.024 7.67241 10.6167 7.99901 10.4339L14.3255 6.90733C14.6521 6.72398 15.0687 6.83604 15.2556 7.1566C15.4418 7.47593 15.3272 7.88328 15.0006 8.06602L8.67392 11.5926C8.56755 11.6519 8.4517 11.68 8.33721 11.68Z" fill="#2B2D45"/>
<path d="M14.663 17.1803C14.5484 17.1803 14.4325 17.1522 14.3261 17.0929L7.99948 13.5662C7.67289 13.3842 7.5584 12.9769 7.74455 12.6568C7.92994 12.3369 8.34718 12.2242 8.67452 12.4076L15.0012 15.9342C15.3278 16.1162 15.4423 16.5235 15.2561 16.8436C15.13 17.0595 14.8996 17.1803 14.663 17.1803Z" fill="#2B2D45"/>
</g>
</g>
</svg>
