<svg width="24" height="24" viewBox="0 0 24 24" fill="none" xmlns="http://www.w3.org/2000/svg">
<g id="htmlTag=img, asset=Show, assetKey=Content, action=Default, style=Basic400">
<path id="Content" fill-rule="evenodd" clip-rule="evenodd" d="M12 13.501C11.173 13.501 10.5 12.828 10.5 12.001C10.5 11.174 11.173 10.501 12 10.501C12.827 10.501 13.5 11.174 13.5 12.001C13.5 12.828 12.827 13.501 12 13.501ZM12 8.501C10.07 8.501 8.50005 10.071 8.50005 12.001C8.50005 13.931 10.07 15.501 12 15.501C13.93 15.501 15.5 13.931 15.5 12.001C15.5 10.071 13.93 8.501 12 8.501ZM12.2197 16.9986C7.91375 17.0986 5.10475 13.4156 4.17275 11.9966C5.19875 10.3916 7.78275 7.1056 11.7807 7.0036C16.0697 6.8946 18.8948 10.5866 19.8267 12.0056C18.8018 13.6106 16.2167 16.8966 12.2197 16.9986ZM21.8678 11.5036C21.2297 10.3916 17.7057 4.8176 11.7297 5.0046C6.20175 5.1446 2.98675 10.0146 2.13275 11.5036C1.95575 11.8116 1.95575 12.1906 2.13275 12.4986C2.76175 13.5956 6.16175 19.0006 12.0247 19.0006C12.1067 19.0006 12.1888 18.9996 12.2708 18.9976C17.7978 18.8566 21.0138 13.9876 21.8678 12.4986C22.0438 12.1906 22.0438 11.8116 21.8678 11.5036Z" fill="#D2D3DF"/>
</g>
</svg>
